<?xml version="1.0" encoding="utf-8"?>
<!-- Generator: Adobe Illustrator 21.1.0, SVG Export Plug-In . SVG Version: 6.00 Build 0)  -->
<svg version="1.1" id="Layer_1" xmlns="http://www.w3.org/2000/svg" xmlns:xlink="http://www.w3.org/1999/xlink" x="0px" y="0px"
	 viewBox="0 0 427.3 84.1" style="enable-background:new 0 0 427.3 84.1;" xml:space="preserve">
<style type="text/css">
	.st0{fill:#B01AA7;}
	.st1{fill:#262959;}
</style>
<g>
	<path class="st0" d="M271.5,58.7h10.8c-0.4-2.5-2.4-3.7-5.2-3.7C274.4,55,272.3,56.2,271.5,58.7z M277,50.8c6.7,0,10.8,4,10.1,12
		h-15.5c0.4,2.4,2.5,4.1,6,4.1c1.9,0,4.2-0.7,5.3-1.8l3.1,3c-2.1,2.2-5.6,3.1-8.6,3.1c-6.8,0-10.9-4.2-10.9-10.4
		C266.4,55,270.5,50.8,277,50.8z M296.9,66.5c0.7,0,1.7-0.2,2.5-0.7l1.4,4.1c-1.5,0.6-2.6,0.8-4.1,0.8c-4.3,0.1-7.2-2.3-7.2-7.1
		V46.3l5-0.5v5.5h5.5v4.1h-5.6v8.3C294.3,65.7,295.4,66.5,296.9,66.5L296.9,66.5z M334.3,50.9c2.1,0,3.9,0.5,5,1.4l-2.2,4.1
		c-1-0.7-1.7-1-3.4-1c-2.6,0-5,1.3-5,4.9v10.2h-5V51.4h4.6l0.4,2.3C330.2,51.3,332.3,50.9,334.3,50.9L334.3,50.9z M348.8,66.7
		c3.6,0,5.5-2.6,5.5-5.7c0-3-2.1-5.8-5.5-5.8c-3.6,0-5.5,2.9-5.5,5.8C343.3,63.9,345.2,66.7,348.8,66.7z M348.8,51
		c6.3,0,10.4,4.5,10.4,10.1c0,5.7-4,10.1-10.4,10.1c-6.5,0-10.3-4.6-10.3-10.1S342.5,51,348.8,51L348.8,51z M376.2,61.2H376v-9.9
		h4.8v19.4h-4.3l-0.4-2.7c-2,1.9-4,2.9-6.7,2.9c-4.7,0-8.2-3.5-8.2-9.5v-10h5v10.1c0,2.9,1.7,5.2,4.8,5.2
		C374,66.7,376.2,64.1,376.2,61.2z M395.2,51c4.7,0,8.5,3.5,8.5,9.5v10.1h-5V60.5c0-2.9-1.7-5.2-4.8-5.2c-3,0-5.1,2.5-5.1,5.4v9.9
		H384V51.3h4.3l0.4,2.7C390.7,52,392.7,51,395.2,51z M416.2,66.7c3.1,0,5.8-2.2,5.8-5.7c0-3.4-2.7-5.7-5.8-5.7
		c-3.2,0-5.7,2.2-5.7,5.7C410.5,64.4,413.1,66.7,416.2,66.7z M422.3,43.3h5v27.3h-4.6l-0.4-2.6c-1.6,2.3-4,3.1-6.5,3.1
		c-6,0-10.3-3.7-10.3-10.1c0-6.6,4.3-10.1,10.2-10.1c2.1,0,5.5,1.1,6.6,3.1L422.3,43.3L422.3,43.3z M313.6,66.2
		c0.1,0,0.3-0.1,0.4-0.1c0.6-0.5,1.1-1.2,1.4-1.9c0.1-0.4,0.2-0.6,0.2-1c0.1-0.2,0.1-0.6,0.1-1c0-0.1,0-0.1-0.1-0.1h-0.2
		c-0.2,0.1-0.4,0.1-0.6,0.1c-0.9,0.1-1.6,0.1-2.4,0.2c-1.4,0.1-2.9,0.2-4.1,0.8c-0.5,0.1-0.9,0.3-1.1,0.7c-0.2,0.3-0.4,0.6-0.4,1
		c0,0.4,0,0.7,0.2,1.1c0.4,0.5,1,0.8,1.6,1c1,0.2,2,0,2.9-0.1C312.3,66.8,313,66.5,313.6,66.2z M317.6,51.6c2,1.2,3.1,3,3.5,5.2
		c0.1,2.9,0,5.9,0,8.8v4.9H316v-1.8c-0.6,0.5-1,0.8-1.5,1.1c-3.1,1.9-8.6,1.3-10.8-1.3c-2.1-2.5-1.5-7.6,2.7-8.7
		c2.2-0.6,5.6-0.8,7.8-1.3c0.5-0.1,1.6-0.2,1.6-0.7c0.1-1,0-1.3-0.6-1.9c-1.2-1.2-3.2-1.2-4.7-1c-2,0.4-2.7,1.1-3.1,3.4l-4.7-1.1
		c0.1-3,2.1-5.4,5.3-6.3C310.5,50.3,315.3,50.3,317.6,51.6z M266.3,51c0,0-0.5,3.1-3.6,4.3H254c-3.6,0-5.5,2.9-5.5,5.8
		c0,2.9,1.9,5.7,5.5,5.7c3.6,0,5.5-2.8,5.5-5.7c0-1.6-0.6-3.1-1.7-4.2h5.8c0.5,1.2,0.9,2.6,0.9,4.2c0,3.1-1.4,6-3.6,7.8
		c2.9,1.7,3.6,3.9,3.6,6.3c0,5.5-4.3,8.9-10.3,8.9c-5.5,0-9.8-3-10.3-7.8l5-0.5c0.2,2.3,2.6,3.7,5.3,3.7c3,0,5.2-1.6,5.2-4.3
		c0-2.8-2.7-4-5.2-4H254c-6.5,0-10.3-4.6-10.3-10.1S247.7,51,254,51C254,51,266.3,51,266.3,51z"/>
	<path class="st1" d="M58.5,18.4h14.1v49.4H58.5V18.4z M37.8,20.2c-3-1.8-6.8-2.9-11.2-2.9C11.8,17.3-0.1,28.8,0,42.9
		C-0.1,57,11.8,68.5,26.6,68.5c4.4,0,8.2-1.1,11.2-2.9v2h13.8V2.5H37.8V20.2z M27.1,57.1c-7.7,0-14-6.3-14-14V43c0-7.7,6.3-14,14-14
		c2.6,0,4.9,0.7,6.9,2c1.5,0.8,2.8,2,3.9,3.3v17.9C35.1,55.3,31.2,57.1,27.1,57.1z M97.2,18.2h14.1v49.4H97.2V18.2z M142.2,45.4
		l-11.3-27.2h-14.1l20.7,49.4h9.6l20.7-49.4h-14.1L142.2,45.4z M104.3,0c4.2,0,7.6,3.4,7.6,7.6l0,0c0,4.2-3.4,7.6-7.6,7.6l0,0
		c-4.2,0-7.6-3.4-7.6-7.6l0,0C96.6,3.4,100.1,0,104.3,0L104.3,0L104.3,0z M84.7,17.1c-4.2-0.6-8,2.4-8.6,6.5c-0.1,0.7-0.1,1.3,0,2
		c0.5,3.4,3.1,6.1,6.5,6.5c4.2,0.6,8-2.4,8.6-6.5c0.1-0.7,0.1-1.3,0-2C90.8,20.3,88.1,17.6,84.7,17.1z M209.9,18.2l-11.3,27.1
		l-11.3-27.1h-14.1l17.3,41.4c0.7,1.7,0.7,3.5,0,5.2l-8,19.1h14.1l6.8-16.3L224,18.2H209.9L209.9,18.2L209.9,18.2z"/>
	<path class="st0" d="M248.1,27.6V29H245V4.8h3.2v9.6c1.4-1.1,3.1-1.8,4.9-1.7c1.4,0,2.7,0.3,3.9,1c2.6,1.5,4.1,4.3,4.1,7.3
		c0,3.2-1.7,5.9-4.1,7.3c-1.2,0.7-2.6,1.1-4,1.1C251.2,29.4,249.5,28.7,248.1,27.6z M248.2,18v6c1.1,1.5,2.7,2.3,4.4,2.3
		c3.1,0,5.3-2.4,5.3-5.3c0-2.8-2-5.3-5.1-5.3C251,15.7,249.3,16.6,248.2,18L248.2,18z M268.5,37.2h-3.4l4.3-9.8L262.6,13h3.4l5,10.6
		l4.6-10.6h3.4L268.5,37.2z"/>
</g>
</svg>
